#!OML:ASF H:\LiuWeirdWalks\Patient Classification 1\Patient 1\Session 1\male.ASF
:FULLY-SPECIFIED
:DEGREES
161
root 0.0819696 17.792 -23.6397 14.201 1.84165 -1.48972
lowerback 9.17025 2.30951 2.60004
upperback -1.30282 3.54665 2.61445
thorax -6.52794 1.69559 0.761677
lowerneck -19.4878 0.318481 3.34291
upperneck 15.5138 1.04913 -7.87099
head 8.07625 -0.113506 -3.06283
rclavicle 3.95581e-014 1.82882e-014
rhumerus -19.2262 -0.530361 -82.984
rradius 34.114
rwrist -11.8505
rhand -20.2069 -2.40724
rfingers 7.12502
rthumb 6.14009 -32.2983
lclavicle 3.95581e-014 1.82882e-014
lhumerus -50.0236 22.3624 62.7389
lradius 14.6344
lwrist -10.1241
lhand -14.4865 -1.07645
lfingers 7.12502
lthumb 11.66 28.5791
rfemur 8.70675 1.09204 25.7118
rtibia 15.9924
rfoot 6.5936 -18.6023
rtoes -22.2981
lfemur -44.7736 2.23134 -20.8062
ltibia 27.5916
lfoot -16.6702 11.537
ltoes -18.1915
162
root 0.10277 17.7716 -23.4348 14.0825 1.44268 -1.34986
lowerback 9.17438 2.40168 2.38987
upperback -1.25927 3.63735 2.51624
thorax -6.48994 1.74642 0.763637
lowerneck -19.4669 0.306133 3.29309
upperneck 15.5445 1.02319 -7.74386
head 8.07996 -0.115814 -3.01498
rclavicle -1.98785e-015 2.38542e-015
rhumerus -19.0809 -0.0482314 -83.127
rradius 34.9394
rwrist -12.1673
rhand -20.0021 -1.40361
rfingers 7.12502
rthumb 6.33776 -31.2888
lclavicle -1.98785e-015 2.38542e-015
lhumerus -50.7879 23.5907 61.0212
lradius 14.1509
lwrist -11.6565
lhand -14.5836 -0.848458
lfingers 7.12502
lthumb 11.5663 28.8124
rfemur 9.23405 1.05242 25.3246
rtibia 16.2287
rfoot 7.56179 -18.1005
rtoes -22.8504
lfemur -44.2058 1.98051 -20.8051
ltibia 28.3494
lfoot -17.3591 11.8735
ltoes -18.2528
163
root 0.124349 17.7549 -23.2192 13.9242 1.05546 -1.18741
lowerback 9.14414 2.48552 2.15076
upperback -1.21909 3.71233 2.41291
thorax -6.43779 1.79064 0.780233
lowerneck -19.4456 0.323628 3.31322
upperneck 15.6244 1.02622 -7.64271
head 8.10221 -0.103371 -2.98491
rclavicle -2.44505e-014 -1.59028e-015
rhumerus -19.0343 0.374408 -83.2537
rradius 35.6312
rwrist -12.3981
rhand -19.8441 -0.522114
rfingers 7.12502
rthumb 6.4903 -30.4027
lclavicle -2.44505e-014 -1.59028e-015
lhumerus -51.529 24.5636 59.5433
lradius 13.7791
lwrist -12.9143
lhand -14.6102 -0.655098
lfingers 7.12502
lthumb 11.5407 29.0072
rfemur 9.73594 0.960329 24.891
rtibia 16.5574
rfoot 8.70816 -17.5727
rtoes -23.4836
lfemur -43.5126 1.78684 -20.8743
ltibia 29.1018
lfoot -18.0771 12.2904
ltoes -18.2216
164
root 0.146854 17.7441 -22.9949 13.756 0.702947 -0.980071
lowerback 9.06251 2.54904 1.87007
upperback -1.18554 3.75396 2.30142
thorax -6.36574 1.82005 0.818682
lowerneck -19.4122 0.365803 3.38015
upperneck 15.7336 1.05379 -7.55285
head 8.13391 -0.0776567 -2.96379
rclavicle 3.3197e-014 2.78299e-014
rhumerus -19.0547 0.753915 -83.3791
rradius 36.1679
rwrist -12.5551
rhand -19.8169 0.121757
rfingers 7.12502
rthumb 6.51658 -29.758
lclavicle 3.3197e-014 2.78299e-014
lhumerus -52.2161 25.3288 58.3065
lradius 13.4934
lwrist -13.9448
lhand -14.5791 -0.562122
lfingers 7.12502
lthumb 11.5706 29.0985
rfemur 10.1437 0.788898 24.3834
rtibia 17.0056
rfoot 10.0574 -17.0158
rtoes -24.2087
lfemur -42.7635 1.65936 -21.0564
ltibia 29.8143
lfoot -18.732 12.7535
ltoes -18.111
165
root 0.170566 17.7411 -22.7634 13.5944 0.38422 -0.727002
lowerback 8.94676 2.59178 1.56217
upperback -1.1684 3.76417 2.17225
thorax -6.29225 1.83456 0.859781
lowerneck -19.3849 0.42298 3.49639
upperneck 15.882 1.09424 -7.48478
head 8.1809 -0.0454945 -2.95742
rclavicle 9.54166e-015 -7.95139e-016
rhumerus -19.1331 1.08333 -83.5165
rradius 36.543
rwrist -12.6523
rhand -19.9086 0.507054
rfingers 7.12502
rthumb 6.42804 -29.3754
lclavicle 9.54166e-015 -7.95139e-016
lhumerus -52.8064 25.8627 57.3567
lradius 13.2979
lwrist -14.7141
lhand -14.5414 -0.549932
lfingers 7.12502
lthumb 11.607 29.1086
rfemur 10.3965 0.55673 23.7943
rtibia 17.6107
rfoot 11.671 -16.4473
rtoes -25.02
lfemur -42.0004 1.60363 -21.3521
ltibia 30.4586
lfoot -19.2759 13.2201
ltoes -17.9318
166
root 0.195587 17.7458 -22.5266 13.4492 0.101225 -0.444998
lowerback 8.80236 2.61324 1.24619
upperback -1.16313 3.74533 2.0338
thorax -6.21474 1.8348 0.901064
lowerneck -19.3666 0.486825 3.62061
upperneck 16.048 1.14225 -7.41707
head 8.23598 -0.00948242 -2.95193
rclavicle -1.78906e-015 -3.97569e-015
rhumerus -19.2585 1.35053 -83.6601
rradius 36.7471
rwrist -12.6837
rhand -20.1048 0.733297
rfingers 7.12502
rthumb 6.23865 -29.1548
lclavicle -1.78906e-015 -3.97569e-015
lhumerus -53.2886 26.2765 56.6224
lradius 13.1385
lwrist -15.3291
lhand -14.5152 -0.65145
lfingers 7.12502
lthumb 11.6323 29.0057
rfemur 10.4403 0.30668 23.1422
rtibia 18.4265
rfoot 13.6049 -15.8619
rtoes -25.8683
lfemur -41.2426 1.58893 -21.7168
ltibia 31.0198
lfoot -19.6935 13.6588
ltoes -17.7543
167
root 0.221941 17.7575 -22.2868 13.327 -0.152265 -0.146226
lowerback 8.65256 2.61402 0.936395
upperback -1.18068 3.70118 1.89046
thorax -6.15721 1.82201 0.937164
lowerneck -19.356 0.546937 3.74609
upperneck 16.229 1.19005 -7.37292
head 8.29781 0.0239435 -2.95502
rclavicle -1.98785e-015 -7.95139e-016
rhumerus -19.4676 1.56517 -83.8058
rradius 36.816
rwrist -12.6625
rhand -20.3354 0.841753
rfingers 7.12502
rthumb 6.01601 -29.0528
lclavicle -1.98785e-015 -7.95139e-016
lhumerus -53.6907 26.6513 56.0205
lradius 12.9953
lwrist -15.8871
lhand -14.5072 -0.85196
lfingers 7.12502
lthumb 11.64 28.8047
rfemur 10.2255 0.0868885 22.441
rtibia 19.5021
rfoot 15.9642 -15.2657
rtoes -26.4376
lfemur -40.4958 1.58737 -22.1143
ltibia 31.4956
lfoot -19.9965 14.046
ltoes -17.5836
168
root 0.249506 17.7734 -22.0453 13.2221 -0.390693 0.101916
lowerback 8.49692 2.60663 0.700955
upperback -1.21294 3.65615 1.75812
thorax -6.10779 1.80626 0.94328
lowerneck -19.3181 0.592321 3.85596
upperneck 16.3822 1.22458 -7.34585
head 8.34495 0.0492495 -2.96223
rclavicle -1.63003e-014 3.18055e-015
rhumerus -19.7525 1.70507 -83.9405
rradius 36.7461
rwrist -12.5797
rhand -20.5642 0.874758
rfingers 7.12502
rthumb 5.79507 -29.026
lclavicle -1.63003e-014 3.18055e-015
lhumerus -54.0176 27.0437 55.4867
lradius 12.8461
lwrist -16.4555
lhand -14.4931 -1.17124
lfingers 7.12502
lthumb 11.6536 28.4847
rfemur 9.73201 -0.0432039 21.7658
rtibia 20.8814
rfoot 18.807 -14.671
rtoes -26.4668
lfemur -39.7349 1.58392 -22.4473
ltibia 31.8938
lfoot -20.2388 14.3748
ltoes -17.4358
169
root 0.278263 17.7908 -21.8036 13.1269 -0.636852 0.274874
lowerback 8.35261 2.60269 0.559277
upperback -1.26164 3.628 1.64339
thorax -6.07767 1.79575 0.912163
lowerneck -19.2468 0.608051 3.92701
upperneck 16.5303 1.23357 -7.33583
head 8.38298 0.0589745 -2.97166
rclavicle 1.82882e-014 -9.54166e-015
rhumerus -20.1315 1.7636 -84.0474
rradius 36.5527
rwrist -12.3753
rhand -20.7101 0.912502
rfingers 7.12502
rthumb 5.65423 -28.9921
lclavicle 1.82882e-014 -9.54166e-015
lhumerus -54.2562 27.4157 55.0698
lradius 12.7156
lwrist -16.9423
lhand -14.4932 -1.51799
lfingers 7.12502
lthumb 11.6535 28.1379
rfemur 8.96286 -0.067342 21.1352
rtibia 22.5922
rfoot 22.048 -14.0439
rtoes -25.9434
lfemur -38.9367 1.60952 -22.6958
ltibia 32.2251
lfoot -20.4779 14.6006
ltoes -17.3372
170
root 0.307883 17.8082 -21.5628 13.0343 -0.901296 0.338929
lowerback 8.21596 2.60321 0.53584
upperback -1.31513 3.62067 1.56224
thorax -6.05216 1.79194 0.846759
lowerneck -19.12 0.603031 3.95554
upperneck 16.6399 1.22899 -7.34223
head 8.39739 0.0592179 -2.98014
rclavicle -1.94809e-014 -3.18055e-015
rhumerus -20.6015 1.76981 -84.1137
rradius 36.2594
rwrist -12.0359
rhand -20.7427 0.935461
rfingers 7.12502
rthumb 5.62279 -28.9699
lclavicle -1.94809e-014 -3.18055e-015
lhumerus -54.422 27.8677 54.6844
lradius 12.5681
lwrist -17.4389
lhand -14.5001 -1.83373
lfingers 7.12502
lthumb 11.6469 27.8226
rfemur 7.93685 -0.00407584 20.583
rtibia 24.6498
rfoot 25.5867 -13.3257
rtoes -24.5489
lfemur -38.0951 1.68719 -22.8297
ltibia 32.4974
lfoot -20.729 14.7261
ltoes -17.2894
171
root 0.337962 17.8252 -21.3227 12.9123 -1.19174 0.272916
lowerback 8.11984 2.60607 0.642649
upperback -1.36437 3.63273 1.52191
thorax -6.04013 1.79372 0.746843
lowerneck -18.9454 0.594557 3.97726
upperneck 16.7238 1.22709 -7.37539
head 8.39509 0.0585707 -2.99542
rclavicle -3.77691e-015 2.38542e-015
rhumerus -21.1507 1.74999 -84.1448
rradius 35.8837
rwrist -11.5305
rhand -20.6086 0.910861
rfingers 7.12502
rthumb 5.75227 -28.9911
lclavicle -3.77691e-015 2.38542e-015
lhumerus -54.4866 28.3102 54.4431
lradius 12.451
lwrist -17.7812
lhand -14.5165 -2.01328
lfingers 7.12502
lthumb 11.6311 27.6439
rfemur 6.71309 0.102925 20.1339
rtibia 27.0687
rfoot 29.1868 -12.5022
rtoes -22.1491
lfemur -37.1742 1.85938 -22.8369
ltibia 32.7107
lfoot -21.0188 14.6953
ltoes -17.2719
172
root 0.368597 17.842 -21.0828 12.7383 -1.51658 0.11092
lowerback 8.07202 2.60667 0.830304
upperback -1.39114 3.65263 1.52497
thorax -6.02979 1.79715 0.644315
lowerneck -18.7809 0.606853 4.00942
upperneck 16.8478 1.25751 -7.43081
head 8.41036 0.0709805 -3.01689
rclavicle 4.27387e-014 1.19271e-014
rhumerus -21.7694 1.79816 -84.1539
rradius 35.4811
rwrist -11.0794
rhand -20.42 0.820194
rfingers 7.12502
rthumb 5.93432 -29.0767
lclavicle 4.27387e-014 1.19271e-014
lhumerus -54.4688 28.8263 54.2878
lradius 12.3395
lwrist -18.0421
lhand -14.5708 -2.08026
lfingers 7.12502
lthumb 11.5787 27.5799
rfemur 5.34057 0.173678 19.7467
rtibia 29.8555
rfoot 32.608 -11.4675
rtoes -18.3326
lfemur -36.1529 2.13418 -22.7615
ltibia 32.8515
lfoot -21.2963 14.5254
ltoes -17.2677
